<?xml version="1.0" standalone="no"?>
<!DOCTYPE svg PUBLIC "-//W3C//DTD SVG 20010904//EN"
 "http://www.w3.org/TR/2001/REC-SVG-20010904/DTD/svg10.dtd">
<svg version="1.0" xmlns="http://www.w3.org/2000/svg"
 width="235.000000pt" height="235.000000pt" viewBox="0 0 235.000000 235.000000"
 preserveAspectRatio="xMidYMid meet">
<metadata>
Created by potrace 1.14, written by Peter Selinger 2001-2017
</metadata>
<g transform="translate(0.000000,235.000000) scale(0.100000,-0.100000)"
fill="#000000" stroke="none">
<path d="M384 2156 c-68 -30 -108 -126 -139 -333 -22 -151 -20 -231 9 -295 13
-29 33 -62 45 -72 11 -11 21 -23 21 -28 0 -19 -69 -154 -86 -170 -11 -9 -38
-21 -61 -27 -24 -6 -61 -16 -82 -21 -22 -6 -49 -22 -60 -37 -19 -23 -20 -34
-14 -111 5 -63 3 -83 -5 -78 -33 20 2 -213 44 -298 29 -58 59 -98 68 -89 3 3
6 2 6 -4 0 -6 55 -12 137 -16 139 -5 243 -26 397 -78 32 -11 75 -22 95 -24 20
-2 53 -9 74 -14 20 -6 52 -15 70 -20 58 -16 81 -28 135 -70 44 -35 65 -44 130
-56 42 -7 109 -27 149 -44 40 -17 78 -31 85 -31 7 0 31 -12 52 -26 38 -26 41
-27 150 -20 160 9 297 31 351 55 61 27 157 127 213 220 40 69 92 201 92 236 0
39 -35 88 -91 126 -66 45 -63 35 -59 193 2 108 3 110 33 135 88 74 128 158
186 388 26 99 27 185 5 223 -23 39 -104 70 -179 70 -101 -1 -266 -40 -421
-101 -27 -11 -35 -10 -61 9 -86 61 -255 127 -388 152 -81 15 -229 18 -330 7
-65 -7 -72 -6 -95 15 -62 56 -72 61 -37 19 69 -83 37 -73 -65 21 -200 181
-293 230 -374 194z"/>
</g>
</svg>
